<svg xmlns="http://www.w3.org/2000/svg" width="237" height="215"><path style="stroke:none;fill-rule:evenodd;fill:#bac8d3;fill-opacity:1" d="M-.23-.21h237v215h-237v-215Zm0 0"/><path style="stroke:none;fill-rule:evenodd;fill:#fdfefe;fill-opacity:1" d="M74.293 34.223c14.66-.07 29.316 0 43.977.21 1.93.63 3.238 1.82 3.933 3.57a97.637 97.637 0 0 1 0 13.438c-.379 1.528-1.226 2.786-2.547 3.778a6837.26 6837.26 0 0 0 13.426 8.61c5.59 4.198 9.371 9.444 11.34 15.745.52 15.528.906 31.067 1.156 46.614a59.163 59.163 0 0 1 12.5-5.672c14.332-.848 22.356 5.171 24.07 18.058.004 2.711-.613 5.301-1.851 7.77 4.25 3.23 7.105 7.289 8.562 12.176.942 11.664-4.843 18.875-17.359 21.628-18.977.278-37.957.278-56.934 0-4.785-.699-8.796-2.66-12.035-5.882-13.289-.016-26.558-.297-39.808-.836-8.7-2.575-13.715-7.961-15.043-16.168-.313-25.196-.313-50.39 0-75.586 1.492-7.262 5.43-13.211 11.8-17.848a205.48 205.48 0 0 1 13.192-8.187 79.307 79.307 0 0 0-2.313-3.782 103.798 103.798 0 0 1 0-13.855c.782-1.758 2.094-3.02 3.934-3.781Zm0 0"/><path style="stroke:none;fill-rule:evenodd;fill:#bac8d3;fill-opacity:1" d="M75.684 39.262h41.66a69.913 69.913 0 0 1-.465 11.34H75.684v-11.34Zm0 0"/><path style="stroke:none;fill-rule:evenodd;fill:#d0d9e1;fill-opacity:1" d="M75.684 39.262v11.34h41.195c-13.805.418-27.692.558-41.66.418a75.168 75.168 0 0 1 .465-11.758Zm0 0"/><path style="stroke:none;fill-rule:evenodd;fill:#bac8d3;fill-opacity:1" d="M139.563 82.934v2.52H53v-2.938c.645-5.02 2.96-9.29 6.945-12.809a409.061 409.061 0 0 1 21.293-13.855 536.499 536.499 0 0 1 30.086 0 363.433 363.433 0 0 0 14.352 8.816c5.566 3.371 9.812 7.781 12.73 13.227.817 1.601 1.203 3.28 1.156 5.039Zm0 0"/><path style="stroke:none;fill-rule:evenodd;fill:#f4f6f8;fill-opacity:1" d="M53 82.516v2.937h86.563v-2.52c.445.887.601 1.868.46 2.942H52.54c-.144-1.21.012-2.332.461-3.36Zm0 0"/><path style="stroke:none;fill-rule:evenodd;fill:#d0d9e1;fill-opacity:1" d="M139.563 129.125V90.492H53v57.11c-.46-19.106-.617-38.282-.46-57.528h87.483c.153 13.09 0 26.106-.46 39.051Zm0 0"/><path style="stroke:none;fill-rule:evenodd;fill:#bac8d3;fill-opacity:1" d="M139.563 129.125a2183.939 2183.939 0 0 0-34.254 18.266c-17.438.21-34.871.28-52.309.21V90.493h86.563v38.633Zm0 0"/><path style="stroke:none;fill-rule:evenodd;fill:#fcfcfd;fill-opacity:1" d="M88.645 99.73c5.093-.07 10.183 0 15.273.211.387.352.773.7 1.16 1.051.23 3.215.305 6.434.23 9.656a52.158 52.158 0 0 1 11.11.633c.23.207.46.418.691.63.313 4.616.313 9.237 0 13.855l-.691.632a52.413 52.413 0 0 1-11.11.63c.2 3.406-.03 6.765-.695 10.077-.23.208-.465.418-.695.63-5.09.28-10.184.28-15.273 0-.23-.212-.465-.423-.696-.63a39.367 39.367 0 0 1-.695-10.078c-3.55.07-7.102 0-10.645-.21-.386-.352-.773-.7-1.156-1.051a102.503 102.503 0 0 1 0-13.856c.383-.351.77-.7 1.156-1.05 3.543-.212 7.094-.282 10.645-.212-.074-3.222 0-6.441.23-9.656a4.59 4.59 0 0 0 1.16-1.262Zm0 0"/><path style="stroke:none;fill-rule:evenodd;fill:#bac8d3;fill-opacity:1" d="M92.809 104.352h6.945c-.078 3.082 0 6.16.23 9.238.215.601.602 1.09 1.157 1.469 3.699.21 7.402.28 11.109.21v6.72c-3.55-.071-7.102 0-10.645.206-.543.493-1.082.98-1.62 1.473-.231 3.215-.31 6.434-.231 9.656h-6.945c.078-3.222 0-6.441-.23-9.656-.54-.492-1.079-.98-1.622-1.473-3.543-.207-7.094-.277-10.644-.207v-6.718c3.707.07 7.41 0 11.109-.211.555-.38.941-.868 1.156-1.47.23-3.077.309-6.155.23-9.237Zm0 0"/><path style="stroke:none;fill-rule:evenodd;fill:#bdcad5;fill-opacity:1" d="M159.465 124.926c7.664-.305 13.219 2.636 16.664 8.82-.934.227-1.86.016-2.777-.629-4.938-2.523-9.875-5.039-14.813-7.562.426-.114.734-.325.926-.63Zm0 0"/><path style="stroke:none;fill-rule:evenodd;fill:#bbc9d4;fill-opacity:1" d="M152.059 127.867a931.583 931.583 0 0 1 24.07 11.969c.437 1.172.36 2.363-.23 3.566-.333.399-.72.47-1.157.211a1129.362 1129.362 0 0 0-26.387-13.437 22.8 22.8 0 0 0 3.704-2.309Zm0 0"/><path style="stroke:none;fill-rule:evenodd;fill:#bcc9d4;fill-opacity:1" d="M142.34 132.906a4.379 4.379 0 0 1 2.312.63 1208.33 1208.33 0 0 0 27.313 13.855c.437.304.515.652.23 1.05a34.484 34.484 0 0 0-3.007 2.102l-30.09-15.328a224.448 224.448 0 0 0 3.242-2.309Zm0 0"/><path style="stroke:none;fill-rule:evenodd;fill:#bac8d3;fill-opacity:1" d="M128.914 140.043c.613-.07 1.152.07 1.621.422 4.77 7.46 9.473 14.95 14.117 22.465a402.766 402.766 0 0 1-22.218 11.757c-8.383 1.97-14.633-.48-18.746-7.347-2.817-7.031-.887-12.7 5.785-17.008a610.038 610.038 0 0 0 19.441-10.289Zm0 0"/><path style="stroke:none;fill-rule:evenodd;fill:#bcc9d4;fill-opacity:1" d="M135.86 139.203a1285.077 1285.077 0 0 1 27.773 14.07c-2.113 1.985-4.426 2.266-6.946.836a480.718 480.718 0 0 0-17.125-8.816 42.238 42.238 0 0 1-3.703-6.09Zm0 0"/><path style="stroke:none;fill-rule:evenodd;fill:#bac8d3;fill-opacity:1" d="M170.574 175.316h-24.531v-7.136a606.084 606.084 0 0 1 27.309-14.489c1.316-.914 2.628-1.824 3.937-2.73 7.094 5.043 8.484 11.2 4.164 18.476-2.73 3.305-6.36 5.266-10.879 5.88Zm0 0"/><path style="stroke:none;fill-rule:evenodd;fill:#c0cdd7;fill-opacity:1" d="M99.754 152.64H53v4.2c-.453-1.453-.61-2.992-.46-4.617 16.077-.141 31.815 0 47.214.418Zm0 0"/><path style="stroke:none;fill-rule:evenodd;fill:#bac8d3;fill-opacity:1" d="M99.754 152.64c-2.719 5.329-3.027 10.79-.926 16.38-5.555.14-11.11.277-16.664.417a216.522 216.522 0 0 1-18.516-.628c-6.214-2.067-9.765-6.055-10.648-11.97v-4.198h46.754Zm0 0"/><path style="stroke:none;fill-rule:evenodd;fill:#bdcad5;fill-opacity:1" d="M144.652 153.902c.028-.23.184-.367.465-.422a178.996 178.996 0 0 1 9.258 4.833c-1.617.66-3.16 1.43-4.629 2.308-1.71-2.246-3.406-4.488-5.094-6.719Zm0 0"/><path style="stroke:none;fill-rule:evenodd;fill:#bbc9d3;fill-opacity:1" d="M140.488 175.316a37.124 37.124 0 0 1-7.87-.418c2.46-1.25 4.929-2.507 7.405-3.78a9.91 9.91 0 0 1 .465 4.198Zm0 0"/><path style="stroke:none;fill-rule:evenodd;fill:#e3e9ed;fill-opacity:1" d="M132.617 174.898c2.535.415 5.16.555 7.871.418-2.847.485-5.781.555-8.797.211.254-.3.563-.511.926-.629Zm0 0"/><path style="stroke:none;fill-rule:evenodd;fill:#dfe6ea;fill-opacity:1" d="M146.043 168.18v7.136h24.531a373.86 373.86 0 0 1-24.996.422c-.148-2.601.004-5.12.465-7.558Zm0 0"/></svg>