<svg width="183" height="161" viewBox="0 0 183 161" fill="none" xmlns="http://www.w3.org/2000/svg">
<g opacity="0.88">
<path d="M161.016 127.817C149.354 145.926 125.453 150.799 107.632 138.702L33.1675 88.1545C15.3464 76.0573 10.3537 51.5706 22.016 33.462V33.462C33.6783 15.3533 57.5793 10.48 75.4004 22.5772L149.865 73.1248C167.686 85.222 172.679 109.709 161.016 127.817V127.817Z" fill="white"/>
<path fill-rule="evenodd" clip-rule="evenodd" d="M35.8747 83.9509L110.339 134.498C125.875 145.045 146.712 140.796 156.879 125.009C167.046 109.222 162.694 87.8748 147.158 77.3285L72.6932 26.7809C57.1568 16.2346 36.3201 20.4831 26.1529 36.2701C15.9858 52.0572 20.3384 73.4046 35.8747 83.9509ZM107.632 138.702C125.453 150.799 149.354 145.926 161.016 127.817C172.679 109.709 167.686 85.222 149.865 73.1248L75.4004 22.5772C57.5793 10.48 33.6783 15.3533 22.016 33.462C10.3537 51.5706 15.3464 76.0573 33.1675 88.1545L107.632 138.702Z" fill="#1E1E1E"/>
<path fill-rule="evenodd" clip-rule="evenodd" d="M116.8 54.3047L78.3571 113.997L74.2202 111.189L112.663 51.4965L116.8 54.3047Z" fill="#1E1E1E"/>
</g>
</svg>
